# xmcd
#
# Track frame offsets: 
#        150
#        11696
#        22764
#        33215
#        46448
#        55347
#        66392
#        76410
#        89347
#        100928
#        112919
#        124920
#        137214
#        148259
#        157640
#        169253
#
# Disc length: 2356 seconds
#
# Revision: 0
# Processed by: cddbd v1.5.1PL0 Copyright (c) Steve Scherf et al.
# Submitted via: ExactAudioCopy v0.90b4
#
DISCID=d1093210
DTITLE=Dolly Parton and Friends  - Retro Gold
DYEAR=1900
DGENRE=
TTITLE0=Makin Believe
TTITLE1=Sandy Posey - Single Girl
TTITLE2=Release Me
TTITLE3=Donna Fargo - Daddy
TTITLE4=Sandy Posey - Born A Woman
TTITLE5=It Wasn't God Who Made Honkyto
TTITLE6=Sandy Posey - What A Woman Won't Do
TTITLE7=Little Blossom
TTITLE8=Donna Fargo - Superman
TTITLE9=Letter To Heaven
TTITLE10=Sandy Posey - Bring Him Safely Home To Me
TTITLE11=Two Little Orphans
TTITLE12=Donna Fargo - Wishful Thinking
TTITLE13=Girl Left Alone
TTITLE14=Sandy Posey - I Will Follow Him
TTITLE15=Puppy Love
EXTD=
EXTT0=
EXTT1=
EXTT2=
EXTT3=
EXTT4=
EXTT5=
EXTT6=
EXTT7=
EXTT8=
EXTT9=
EXTT10=
EXTT11=
EXTT12=
EXTT13=
EXTT14=
EXTT15=
PLAYORDER=
